<svg xmlns="http://www.w3.org/2000/svg" version="1.1" xmlns:xlink="http://www.w3.org/1999/xlink" xmlns:svgjs="http://svgjs.dev/svgjs" width="400" height="100" viewBox="0 0 1000 356"><g transform="matrix(1,0,0,1,-0.6060606060606233,-0.2112953649912015)"><svg viewBox="0 0 396 141" data-background-color="#ffffff" preserveAspectRatio="xMidYMid meet" height="356" width="700" xmlns="http://www.w3.org/2000/svg" xmlns:xlink="http://www.w3.org/1999/xlink"><g id="tight-bounds" transform="matrix(1,0,0,1,0.2400000000000091,0.08368720916786287)"><svg viewBox="0 0 395.52 140.83262558166427" height="140.83262558166427" width="395.52"><g><svg viewBox="0 0 564.4964699880625 200.99999999999997" height="140.83262558166427" width="395.52"><g><rect width="5.511850086127512" height="200.99999999999997" x="205.14648798419842" y="0" fill="#1ebbd7" opacity="1" stroke-width="0" stroke="transparent" fill-opacity="1" class="rect-o-0" data-fill-palette-color="primary" rx="1%" id="o-0" data-palette-color="#1ebbd7"></rect></g><g transform="matrix(1,0,0,1,225.0872649973613,0.4999999999999858)"><svg viewBox="0 0 339.40920499070114 200" height="200" width="339.40920499070114"><g id="textblocktransform"><svg viewBox="0 0 339.40920499070114 200" height="200" width="339.40920499070114" id="textblock"><g><svg viewBox="0 0 339.40920499070114 200" height="200" width="339.40920499070114"><g transform="matrix(1,0,0,1,0,0)"><svg width="339.40920499070114" viewBox="0.8799994587898254 -32.63999938964844 183.57000732421875 105.16999816894531" height="200" data-palette-color="#1ebbd7"><svg></svg><svg></svg><svg></svg><g class="wordmark-text-0" data-fill-palette-color="primary" id="text-0"><path xmlns="http://www.w3.org/2000/svg" d="M11.82 0.07c-0.607 0-1.047-0.077-1.32-0.23-0.28-0.153-0.42-0.393-0.42-0.72v0-26.2h-8.35c-0.307 0-0.527-0.103-0.66-0.31-0.127-0.213-0.19-0.54-0.19-0.98v0-0.71c0-0.453 0.063-0.783 0.19-0.99 0.133-0.2 0.353-0.3 0.66-0.3v0h20.36c0.313 0 0.533 0.1 0.66 0.3 0.133 0.207 0.2 0.537 0.2 0.99v0 0.71c0 0.44-0.067 0.767-0.2 0.98-0.127 0.207-0.347 0.31-0.66 0.31v0h-8.17v26.2c0 0.633-0.587 0.95-1.76 0.95v0zM29.49 0.07c-0.62 0-1.067-0.077-1.34-0.23-0.28-0.153-0.42-0.393-0.42-0.72v0-15.23c0-1.893-0.087-3.257-0.26-4.09-0.18-0.84-0.27-1.3-0.27-1.38v0c0-0.36 0.273-0.617 0.82-0.77 0.54-0.153 1.057-0.23 1.55-0.23v0c0.387 0 0.677 0.207 0.87 0.62 0.2 0.413 0.373 0.997 0.52 1.75v0l0.12 0.51c1.547-2.167 3.223-3.25 5.03-3.25v0c0.827 0 1.453 0.15 1.88 0.45 0.42 0.3 0.63 0.703 0.63 1.21v0c0 0.487-0.083 1.003-0.25 1.55-0.173 0.547-0.373 0.82-0.6 0.82v0c-0.113 0-0.317-0.05-0.61-0.15v0c-0.26-0.113-0.52-0.197-0.78-0.25-0.26-0.06-0.593-0.09-1-0.09v0c-0.667 0-1.3 0.197-1.9 0.59-0.593 0.387-1.093 0.817-1.5 1.29-0.407 0.473-0.61 0.733-0.61 0.78v0 15.87c0 0.327-0.137 0.567-0.41 0.72-0.28 0.153-0.713 0.23-1.3 0.23v0zM49.24 0.24c-2.213 0-4.003-0.543-5.37-1.63-1.367-1.093-2.05-2.713-2.05-4.86v0c0-2.26 0.693-3.963 2.08-5.11 1.38-1.153 3.067-1.897 5.06-2.23 1.993-0.333 4.417-0.523 7.27-0.57v0-2.05c0-1.093-0.373-1.97-1.12-2.63-0.74-0.653-1.957-0.98-3.65-0.98v0c-1.28 0-2.407 0.15-3.38 0.45-0.967 0.3-1.873 0.66-2.72 1.08v0c-0.36 0.18-0.58 0.27-0.66 0.27v0c-0.193 0-0.407-0.14-0.64-0.42-0.24-0.287-0.447-0.61-0.62-0.97-0.167-0.36-0.25-0.62-0.25-0.78v0c0-0.373 0.387-0.78 1.16-1.22 0.773-0.44 1.787-0.807 3.04-1.1 1.253-0.293 2.563-0.44 3.93-0.44v0c2.72 0 4.827 0.593 6.32 1.78 1.5 1.193 2.25 2.863 2.25 5.01v0 9.74c0 1.887 0.083 3.25 0.25 4.09 0.173 0.84 0.26 1.3 0.26 1.38v0c0 0.353-0.273 0.61-0.82 0.77-0.547 0.153-1.053 0.23-1.52 0.23v0c-0.393 0-0.683-0.22-0.87-0.66-0.187-0.44-0.37-1.073-0.55-1.9v0l-0.1-0.49c-0.893 0.993-1.947 1.783-3.16 2.37-1.213 0.58-2.593 0.87-4.14 0.87zM49.44-2.91c1.433 0 2.653-0.26 3.66-0.78 1.007-0.52 2.05-1.26 3.13-2.22v0-5.13c-2.153 0.02-3.92 0.11-5.3 0.27-1.387 0.167-2.6 0.58-3.64 1.24-1.04 0.66-1.56 1.68-1.56 3.06v0c0 1.153 0.313 2.037 0.94 2.65 0.627 0.607 1.55 0.91 2.77 0.91zM73.14 0.07c-1.02 0-1.603-0.227-1.75-0.68v0l-6.99-20.87c-0.093-0.293-0.14-0.483-0.14-0.57v0c0-0.227 0.153-0.403 0.46-0.53 0.313-0.133 0.787-0.2 1.42-0.2v0h0.22c1.007 0 1.583 0.23 1.73 0.69v0l4.42 13.84c0.36 1.073 0.773 2.537 1.24 4.39v0l0.27 1.03h0.2l0.29-1.3c0.36-1.707 0.693-3.047 1-4.02v0l4.47-13.94c0.147-0.46 0.74-0.69 1.78-0.69v0h0.12c1.093 0 1.64 0.243 1.64 0.73v0c0 0.167-0.057 0.363-0.17 0.59v0l-6.96 20.85c-0.147 0.453-0.733 0.68-1.76 0.68v0zM97.44 0.24c-3.6 0-6.273-0.94-8.02-2.82-1.753-1.88-2.63-4.757-2.63-8.63v0c0-3.84 0.857-6.757 2.57-8.75 1.707-1.993 4.22-2.99 7.54-2.99v0c2.96 0 5.193 0.96 6.7 2.88 1.507 1.92 2.26 4.737 2.26 8.45v0c0 0.16-0.087 0.383-0.26 0.67-0.167 0.287-0.37 0.54-0.61 0.76-0.233 0.22-0.433 0.33-0.6 0.33v0h-13.69c0.18 2.42 0.803 4.19 1.87 5.31 1.067 1.113 2.673 1.67 4.82 1.67v0c1.2 0 2.237-0.147 3.11-0.44 0.873-0.293 1.717-0.65 2.53-1.07v0c0.08-0.033 0.2-0.093 0.36-0.18 0.167-0.08 0.283-0.12 0.35-0.12v0c0.173 0 0.38 0.143 0.62 0.43 0.233 0.287 0.437 0.603 0.61 0.95 0.167 0.353 0.25 0.61 0.25 0.77v0c0 0.36-0.357 0.76-1.07 1.2-0.713 0.44-1.67 0.813-2.87 1.12-1.193 0.307-2.473 0.46-3.84 0.46zM90.7-12.99h11.28c0-4.553-1.733-6.83-5.2-6.83v0c-3.727 0-5.753 2.277-6.08 6.83zM116.97 0.24c-1.453 0-2.747-0.437-3.88-1.31-1.14-0.88-1.71-2.437-1.71-4.67v0-25.95c0-0.633 0.577-0.95 1.73-0.95v0h0.2c1.133 0 1.7 0.317 1.7 0.95v0 25.61c0 1.187 0.213 2.017 0.64 2.49 0.42 0.473 0.99 0.71 1.71 0.71v0c0.533 0 0.957-0.033 1.27-0.1 0.307-0.067 0.51-0.1 0.61-0.1v0c0.26 0 0.477 0.263 0.65 0.79 0.167 0.52 0.25 0.933 0.25 1.24v0c0 0.86-1.057 1.29-3.17 1.29z" fill="#1ebbd7" fill-rule="nonzero" stroke="none" stroke-width="1" stroke-linecap="butt" stroke-linejoin="miter" stroke-miterlimit="10" stroke-dasharray="" stroke-dashoffset="0" font-family="none" font-weight="none" font-size="none" text-anchor="none" style="mix-blend-mode: normal" data-fill-palette-color="primary" opacity="1"></path><path xmlns="http://www.w3.org/2000/svg" d="M11.82 36.13c-0.607 0-1.047-0.077-1.32-0.23-0.28-0.153-0.42-0.393-0.42-0.72v0-26.2h-8.35c-0.307 0-0.527-0.103-0.66-0.31-0.127-0.213-0.19-0.54-0.19-0.98v0-0.71c0-0.453 0.063-0.783 0.19-0.99 0.133-0.2 0.353-0.3 0.66-0.3v0h20.36c0.313 0 0.533 0.1 0.66 0.3 0.133 0.207 0.2 0.537 0.2 0.99v0 0.71c0 0.44-0.067 0.767-0.2 0.98-0.127 0.207-0.347 0.31-0.66 0.31v0h-8.17v26.2c0 0.633-0.587 0.95-1.76 0.95v0zM29.57 36.13c-1.16 0-1.74-0.317-1.74-0.95v0-30.81c0-0.633 0.58-0.95 1.74-0.95v0h0.17c1.167 0 1.75 0.317 1.75 0.95v0 11.72c0.847-0.86 1.84-1.573 2.98-2.14 1.14-0.56 2.353-0.84 3.64-0.84v0c1.82 0 3.427 0.513 4.82 1.54 1.393 1.027 2.09 2.85 2.09 5.47v0 15.06c0 0.633-0.577 0.95-1.73 0.95v0h-0.17c-1.173 0-1.76-0.317-1.76-0.95v0-14.7c0-1.313-0.377-2.347-1.13-3.1-0.747-0.747-1.843-1.12-3.29-1.12v0c-0.96 0-1.843 0.227-2.65 0.68-0.807 0.46-1.473 0.953-2 1.48-0.533 0.527-0.8 0.823-0.8 0.89v0 15.87c0 0.633-0.583 0.95-1.75 0.95v0zM60.82 36.3c-3.273 0-5.77-0.98-7.49-2.94-1.713-1.96-2.57-4.81-2.57-8.55v0c0-3.747 0.87-6.633 2.61-8.66 1.74-2.027 4.223-3.04 7.45-3.04v0c3.187 0 5.627 1.007 7.32 3.02 1.693 2.007 2.54 4.9 2.54 8.68v0c0 3.753-0.833 6.607-2.5 8.56-1.673 1.953-4.127 2.93-7.36 2.93zM60.69 33.18c2.12 0 3.683-0.687 4.69-2.06 1.007-1.38 1.51-3.51 1.51-6.39v0c0-2.893-0.503-5.033-1.51-6.42-1.007-1.38-2.57-2.07-4.69-2.07v0c-2.1 0-3.647 0.687-4.64 2.06-0.987 1.373-1.48 3.517-1.48 6.43v0c0 2.9 0.49 5.033 1.47 6.4 0.987 1.367 2.537 2.05 4.65 2.05zM83.4 36.3c-2.213 0-3.947-0.62-5.2-1.86-1.253-1.247-1.88-2.97-1.88-5.17v0-15.04c0-0.633 0.587-0.95 1.76-0.95v0h0.17c1.153 0 1.73 0.317 1.73 0.95v0 14.7c0 1.333 0.387 2.37 1.16 3.11 0.773 0.74 1.86 1.11 3.26 1.11v0c0.973 0 1.95-0.27 2.93-0.81 0.973-0.547 1.82-1.293 2.54-2.24v0-15.87c0-0.633 0.577-0.95 1.73-0.95v0h0.17c1.173 0 1.76 0.317 1.76 0.95v0 15.41c0 1.887 0.08 3.25 0.24 4.09 0.167 0.84 0.25 1.3 0.25 1.38v0c0 0.353-0.27 0.61-0.81 0.77-0.533 0.153-1.037 0.23-1.51 0.23v0c-0.407 0-0.707-0.233-0.9-0.7-0.2-0.46-0.343-0.937-0.43-1.43-0.093-0.487-0.153-0.793-0.18-0.92v0c-0.913 1.027-1.97 1.823-3.17 2.39-1.193 0.567-2.4 0.85-3.62 0.85zM105.66 36.48c-1.22 0-2.357-0.157-3.41-0.47-1.06-0.307-1.903-0.683-2.53-1.13-0.627-0.453-0.94-0.85-0.94-1.19v0c0-0.16 0.087-0.42 0.26-0.78 0.167-0.36 0.37-0.68 0.61-0.96 0.233-0.287 0.447-0.43 0.64-0.43v0c0.053 0 0.2 0.08 0.44 0.24v0c0.653 0.427 1.343 0.787 2.07 1.08 0.72 0.293 1.587 0.44 2.6 0.44v0c2.827 0 4.24-1.173 4.24-3.52v0c0-0.667-0.133-1.227-0.4-1.68-0.267-0.46-0.713-0.863-1.34-1.21-0.627-0.353-1.487-0.693-2.58-1.02v0c-1.56-0.453-2.777-0.973-3.65-1.56-0.867-0.587-1.48-1.273-1.84-2.06-0.36-0.787-0.54-1.743-0.54-2.87v0c0-1.207 0.307-2.29 0.92-3.25 0.607-0.96 1.46-1.707 2.56-2.24 1.1-0.54 2.34-0.81 3.72-0.81v0c0.96 0 1.887 0.09 2.78 0.27 0.887 0.18 1.6 0.413 2.14 0.7 0.547 0.28 0.82 0.577 0.82 0.89v0c0 0.227-0.077 0.53-0.23 0.91-0.153 0.387-0.343 0.72-0.57 1-0.233 0.287-0.437 0.43-0.61 0.43v0c-0.033 0-0.237-0.1-0.61-0.3-0.38-0.207-0.857-0.397-1.43-0.57-0.58-0.167-1.22-0.25-1.92-0.25v0c-1.107 0-2.023 0.247-2.75 0.74-0.72 0.5-1.08 1.163-1.08 1.99v0c0 0.98 0.26 1.763 0.78 2.35 0.52 0.587 1.383 1.067 2.59 1.44v0c1.853 0.567 3.267 1.137 4.24 1.71 0.98 0.567 1.677 1.26 2.09 2.08 0.413 0.827 0.62 1.907 0.62 3.24v0c0 1.267-0.34 2.417-1.02 3.45-0.687 1.033-1.613 1.847-2.78 2.44-1.173 0.6-2.47 0.9-3.89 0.9zM124.71 36.3c-2.213 0-4.003-0.543-5.37-1.63-1.367-1.093-2.05-2.713-2.05-4.86v0c0-2.26 0.69-3.963 2.07-5.11 1.387-1.153 3.077-1.897 5.07-2.23 1.993-0.333 4.413-0.523 7.26-0.57v0-2.05c0-1.093-0.37-1.97-1.11-2.63-0.74-0.653-1.957-0.98-3.65-0.98v0c-1.287 0-2.413 0.15-3.38 0.45-0.973 0.3-1.88 0.66-2.72 1.08v0c-0.36 0.18-0.58 0.27-0.66 0.27v0c-0.2 0-0.417-0.14-0.65-0.42-0.233-0.287-0.437-0.61-0.61-0.97-0.173-0.36-0.26-0.62-0.26-0.78v0c0-0.373 0.387-0.78 1.16-1.22 0.773-0.44 1.787-0.807 3.04-1.1 1.253-0.293 2.563-0.44 3.93-0.44v0c2.72 0 4.83 0.593 6.33 1.78 1.493 1.193 2.24 2.863 2.24 5.01v0 9.74c0 1.887 0.087 3.25 0.26 4.09 0.167 0.84 0.25 1.3 0.25 1.38v0c0 0.353-0.27 0.61-0.81 0.77-0.547 0.153-1.057 0.23-1.53 0.23v0c-0.393 0-0.683-0.22-0.87-0.66-0.187-0.44-0.37-1.073-0.55-1.9v0l-0.09-0.49c-0.9 0.993-1.953 1.783-3.16 2.37-1.213 0.58-2.593 0.87-4.14 0.87zM124.9 33.15c1.433 0 2.653-0.26 3.66-0.78 1.013-0.52 2.057-1.26 3.13-2.22v0-5.13c-2.147 0.02-3.913 0.11-5.3 0.27-1.38 0.167-2.593 0.58-3.64 1.24-1.04 0.66-1.56 1.68-1.56 3.06v0c0 1.153 0.313 2.037 0.94 2.65 0.627 0.607 1.55 0.91 2.77 0.91zM144.31 36.13c-0.62 0-1.067-0.077-1.34-0.23-0.28-0.153-0.42-0.393-0.42-0.72v0-15.23c0-1.893-0.087-3.257-0.26-4.09-0.18-0.84-0.27-1.3-0.27-1.38v0c0-0.36 0.27-0.617 0.81-0.77 0.547-0.153 1.063-0.23 1.55-0.23v0c0.413 0 0.717 0.22 0.91 0.66 0.193 0.44 0.337 0.887 0.43 1.34 0.087 0.453 0.147 0.747 0.18 0.88v0c0.913-1.027 1.967-1.823 3.16-2.39 1.193-0.573 2.403-0.86 3.63-0.86v0c2.213 0 3.94 0.623 5.18 1.87 1.247 1.247 1.87 2.96 1.87 5.14v0 15.06c0 0.327-0.137 0.567-0.41 0.72-0.28 0.153-0.72 0.23-1.32 0.23v0h-0.2c-0.587 0-1.017-0.077-1.29-0.23-0.28-0.153-0.42-0.393-0.42-0.72v0-14.7c0-1.333-0.387-2.37-1.16-3.11-0.773-0.74-1.86-1.11-3.26-1.11v0c-0.973 0-1.953 0.273-2.94 0.82-0.98 0.547-1.83 1.29-2.55 2.23v0 15.87c0 0.327-0.137 0.567-0.41 0.72-0.28 0.153-0.713 0.23-1.3 0.23v0zM173.66 36.3c-1.693 0-3.177-0.49-4.45-1.47-1.267-0.987-2.247-2.36-2.94-4.12-0.693-1.753-1.04-3.747-1.04-5.98v0c0-2.453 0.373-4.557 1.12-6.31 0.74-1.747 1.777-3.07 3.11-3.97 1.333-0.893 2.87-1.34 4.61-1.34v0c1.253 0 2.363 0.187 3.33 0.56 0.973 0.373 1.93 0.92 2.87 1.64v0-10.94c0-0.633 0.57-0.95 1.71-0.95v0h0.2c1.153 0 1.73 0.317 1.73 0.95v0 25.27c0 1.887 0.09 3.25 0.27 4.09 0.18 0.84 0.27 1.3 0.27 1.38v0c0 0.353-0.273 0.61-0.82 0.77-0.547 0.153-1.057 0.23-1.53 0.23v0c-0.32 0-0.58-0.157-0.78-0.47-0.193-0.307-0.327-0.617-0.4-0.93-0.073-0.32-0.19-0.87-0.35-1.65v0c-2.067 2.16-4.37 3.24-6.91 3.24zM174.41 33.15c0.96 0 1.957-0.26 2.99-0.78 1.04-0.52 1.997-1.26 2.87-2.22v0-11.89c-1.56-1.3-3.34-1.95-5.34-1.95v0c-1.94 0.047-3.403 0.753-4.39 2.12-0.98 1.367-1.47 3.353-1.47 5.96v0c0 2.8 0.46 4.96 1.38 6.48 0.92 1.52 2.24 2.28 3.96 2.28z" fill="#1ebbd7" fill-rule="nonzero" stroke="none" stroke-width="1" stroke-linecap="butt" stroke-linejoin="miter" stroke-miterlimit="10" stroke-dasharray="" stroke-dashoffset="0" font-family="none" font-weight="none" font-size="none" text-anchor="none" style="mix-blend-mode: normal" data-fill-palette-color="primary" opacity="1"></path><path xmlns="http://www.w3.org/2000/svg" d="M5.66 72.18c-0.613 0-1.06-0.077-1.34-0.23-0.273-0.153-0.41-0.393-0.41-0.72v0-28.64c0-0.647 0.583-0.97 1.75-0.97v0h1.54c0.96 0 1.57 0.267 1.83 0.8v0l8.21 14.24 1.12 2.73 1.12-2.49 8.23-14.48c0.28-0.533 0.883-0.8 1.81-0.8v0h1.44c1.153 0 1.73 0.323 1.73 0.97v0 28.64c0 0.633-0.577 0.95-1.73 0.95v0h-0.3c-0.613 0-1.06-0.077-1.34-0.23-0.273-0.153-0.41-0.393-0.41-0.72v0-23.36l-0.08 0.19-8.64 15.02c-0.113 0.193-0.243 0.333-0.39 0.42-0.147 0.093-0.333 0.14-0.56 0.14v0h-1.74c-0.433 0-0.757-0.187-0.97-0.56v0l-8.84-15.46v23.61c0 0.633-0.577 0.95-1.73 0.95v0zM42.09 43.94c-1.153 0-1.73-0.32-1.73-0.96v0-2.56c0-0.633 0.577-0.95 1.73-0.95v0h0.51c1.173 0 1.76 0.317 1.76 0.95v0 2.56c0 0.64-0.587 0.96-1.76 0.96v0zM42.26 72.18c-1.153 0-1.73-0.317-1.73-0.95v0-20.95c0-0.633 0.577-0.95 1.73-0.95v0h0.17c1.173 0 1.76 0.317 1.76 0.95v0 20.95c0 0.633-0.587 0.95-1.76 0.95v0zM57.23 72.35c-1.453 0-2.75-0.437-3.89-1.31-1.133-0.88-1.7-2.437-1.7-4.67v0-25.95c0-0.633 0.577-0.95 1.73-0.95v0h0.19c1.14 0 1.71 0.317 1.71 0.95v0 25.61c0 1.187 0.213 2.017 0.64 2.49 0.42 0.473 0.99 0.71 1.71 0.71v0c0.533 0 0.957-0.033 1.27-0.1 0.307-0.067 0.51-0.1 0.61-0.1v0c0.26 0 0.473 0.263 0.64 0.79 0.173 0.52 0.26 0.933 0.26 1.24v0c0 0.86-1.057 1.29-3.17 1.29zM74.02 72.35c-3.593 0-6.267-0.94-8.02-2.82-1.747-1.88-2.62-4.757-2.62-8.63v0c0-3.84 0.853-6.757 2.56-8.75 1.713-1.993 4.23-2.99 7.55-2.99v0c2.96 0 5.193 0.96 6.7 2.88 1.507 1.92 2.26 4.737 2.26 8.45v0c0 0.16-0.087 0.383-0.26 0.67-0.173 0.287-0.377 0.54-0.61 0.76-0.233 0.22-0.433 0.33-0.6 0.33v0h-13.69c0.173 2.42 0.793 4.19 1.86 5.31 1.067 1.113 2.673 1.67 4.82 1.67v0c1.207 0 2.247-0.147 3.12-0.44 0.867-0.293 1.707-0.65 2.52-1.07v0c0.087-0.033 0.21-0.093 0.37-0.18 0.16-0.08 0.273-0.12 0.34-0.12v0c0.18 0 0.387 0.143 0.62 0.43 0.24 0.287 0.447 0.603 0.62 0.95 0.167 0.353 0.25 0.61 0.25 0.77v0c0 0.36-0.357 0.76-1.07 1.2-0.72 0.44-1.677 0.813-2.87 1.12-1.2 0.307-2.483 0.46-3.85 0.46zM67.29 59.12h11.27c0-4.553-1.733-6.83-5.2-6.83v0c-3.727 0-5.75 2.277-6.07 6.83zM92.82 72.53c-1.22 0-2.36-0.157-3.42-0.47-1.053-0.307-1.893-0.683-2.52-1.13-0.627-0.453-0.94-0.85-0.94-1.19v0c0-0.16 0.083-0.42 0.25-0.78 0.173-0.36 0.377-0.68 0.61-0.96 0.24-0.287 0.457-0.43 0.65-0.43v0c0.047 0 0.193 0.08 0.44 0.24v0c0.653 0.427 1.34 0.787 2.06 1.08 0.727 0.293 1.593 0.44 2.6 0.44v0c2.833 0 4.25-1.173 4.25-3.52v0c0-0.667-0.133-1.227-0.4-1.68-0.267-0.46-0.713-0.863-1.34-1.21-0.627-0.353-1.487-0.693-2.58-1.02v0c-1.56-0.453-2.777-0.973-3.65-1.56-0.873-0.587-1.487-1.273-1.84-2.06-0.36-0.787-0.54-1.743-0.54-2.87v0c0-1.207 0.307-2.29 0.92-3.25 0.607-0.96 1.46-1.707 2.56-2.24 1.1-0.54 2.34-0.81 3.72-0.81v0c0.96 0 1.883 0.09 2.77 0.27 0.887 0.18 1.603 0.413 2.15 0.7 0.547 0.28 0.82 0.577 0.82 0.89v0c0 0.227-0.077 0.53-0.23 0.91-0.153 0.387-0.347 0.72-0.58 1-0.227 0.287-0.43 0.43-0.61 0.43v0c-0.033 0-0.237-0.1-0.61-0.3-0.373-0.207-0.847-0.397-1.42-0.57-0.58-0.167-1.22-0.25-1.92-0.25v0c-1.107 0-2.023 0.247-2.75 0.74-0.72 0.5-1.08 1.163-1.08 1.99v0c0 0.98 0.26 1.763 0.78 2.35 0.52 0.587 1.38 1.067 2.58 1.44v0c1.86 0.567 3.277 1.137 4.25 1.71 0.98 0.567 1.677 1.26 2.09 2.08 0.413 0.827 0.62 1.907 0.62 3.24v0c0 1.267-0.34 2.417-1.02 3.45-0.687 1.033-1.617 1.847-2.79 2.44-1.167 0.6-2.46 0.9-3.88 0.9z" fill="#1ebbd7" fill-rule="nonzero" stroke="none" stroke-width="1" stroke-linecap="butt" stroke-linejoin="miter" stroke-miterlimit="10" stroke-dasharray="" stroke-dashoffset="0" font-family="none" font-weight="none" font-size="none" text-anchor="none" style="mix-blend-mode: normal" data-fill-palette-color="primary" opacity="1"></path></g></svg></g></svg></g></svg></g></svg></g><g transform="matrix(1,0,0,1,0,0.5)"><svg viewBox="0 0 190.71756105716304 199.99999999999997" height="199.99999999999997" width="190.71756105716304"><g><svg xmlns="http://www.w3.org/2000/svg" xmlns:xlink="http://www.w3.org/1999/xlink" version="1.1" x="0" y="0" viewBox="17.999996185302734 16.380178451538086 64.10000610351562 67.2198257446289" enable-background="new 0 0 100 100" xml:space="preserve" height="199.99999999999997" width="190.71756105716304" class="icon-icon-0" data-fill-palette-color="accent" id="icon-0"><path d="M77.3 54.3h-7.1v-2.8c0-1.9-1.5-3.4-3.4-3.4H54.9c-1.9 0-3.4 1.5-3.4 3.4v2.8H44c-2.6 0-4.8 2.2-4.8 4.8v19.3c0 2.6 2.2 4.8 4.8 4.8h33.3c2.6 0 4.8-2.2 4.8-4.8V59.1C82.1 56.4 79.9 54.3 77.3 54.3zM53 51.5c0-1.1 0.9-2 2-2h11.8c1.1 0 2 0.9 2 2v2.8h-1v-1.7c0-1.2-1-2.2-2.2-2.2h-9.2c-1.2 0-2.2 1-2.2 2.2v1.7H53V51.5zM66.3 54.3H55.5v-1.7c0-0.4 0.4-0.8 0.8-0.8h9.2c0.4 0 0.8 0.4 0.8 0.8V54.3zM80.6 78.4c0 1.9-1.5 3.4-3.4 3.4H44c-1.9 0-3.4-1.5-3.4-3.4V59.1c0-1.9 1.5-3.4 3.4-3.4h8.2c0 0 0.1 0 0.1 0h17.2c0 0 0.1 0 0.1 0h7.7c1.9 0 3.4 1.5 3.4 3.4V78.4zM46.9 57.2v22.4c0 0.4-0.3 0.7-0.7 0.7s-0.7-0.3-0.7-0.7V57.2c0-0.4 0.3-0.7 0.7-0.7S46.9 56.8 46.9 57.2zM75.4 57.2v22.4c0 0.4-0.3 0.7-0.7 0.7-0.4 0-0.7-0.3-0.7-0.7V57.2c0-0.4 0.3-0.7 0.7-0.7C75.1 56.5 75.4 56.8 75.4 57.2zM70.8 59.6h-9.3c-0.4 0-0.7 0.3-0.7 0.7v4.9c0 0.4 0.3 0.7 0.7 0.7h9.3c0.4 0 0.7-0.3 0.7-0.7v-4.9C71.5 59.9 71.2 59.6 70.8 59.6zM70.1 64.4h-2.4l0.8-0.7c0.3-0.3 0.3-0.7 0-1-0.3-0.3-0.7-0.3-1 0l-1.7 1.7c0 0 0 0 0 0h-0.8l1.5-1.5c0.3-0.3 0.3-0.7 0-1-0.3-0.3-0.7-0.3-1 0l-2.5 2.5c0 0 0 0 0 0h-0.6V61h7.9V64.4zM70.8 66.7H67c-0.4 0-0.7 0.3-0.7 0.7v3.7c0 0.4 0.3 0.7 0.7 0.7h3.8c0.4 0 0.7-0.3 0.7-0.7v-3.7C71.5 67.1 71.2 66.7 70.8 66.7zM70.1 70.4h-2.4v-2.3h2.4V70.4zM64 66.7h-2.5c-0.4 0-0.7 0.3-0.7 0.7v2.4c0 0.4 0.3 0.7 0.7 0.7H64c0.4 0 0.7-0.3 0.7-0.7v-2.4C64.7 67.1 64.4 66.7 64 66.7zM63.3 69.2h-1.1v-1h1.1V69.2zM70.8 72.4h-2.5c-0.4 0-0.7 0.3-0.7 0.7v2.4c0 0.4 0.3 0.7 0.7 0.7h2.5c0.4 0 0.7-0.3 0.7-0.7v-2.4C71.5 72.7 71.2 72.4 70.8 72.4zM70.1 74.8H69v-1h1.1V74.8zM36.1 79.5H22.3c-1.6 0-3-1.3-3-3v-26c0-1.6 1.3-3 3-3h18.4c1.6 0 3 1.2 3 2.8v1.4c0 0.4 0.3 0.7 0.7 0.7 0.4 0 0.7-0.3 0.7-0.7v-1.4c0-2.3-2-4.2-4.4-4.2h-2.7V29.6c0-1.2-1-2.2-2.2-2.2h-8.9c-1.2 0-2.2 1-2.2 2.2l0 16.6h-2.3c-2.4 0-4.4 2-4.4 4.4v26c0 2.2 1.7 4 3.8 4.3 0.1 1.5 1.4 2.7 2.9 2.7 1.5 0 2.8-1.2 2.9-2.7h8.6c0.4 0 0.7-0.3 0.7-0.7C36.9 79.9 36.5 79.5 36.1 79.5zM34.6 32.7v13.5H28V32.7H34.6zM36.1 46.2V32.7h0.4v13.5H36.1zM26.8 28.8h8.9c0.4 0 0.7 0.4 0.7 0.8v1.6H26.1l0-1.6C26.1 29.1 26.4 28.8 26.8 28.8zM26.1 32.7h0.4v13.5h-0.4L26.1 32.7zM24.6 82.2c-0.7 0-1.3-0.5-1.4-1.2h2.9C26 81.7 25.4 82.2 24.6 82.2zM37.9 53.7c0 0.4-0.3 0.7-0.7 0.7H23.6c-0.4 0-0.7-0.3-0.7-0.7 0-0.4 0.3-0.7 0.7-0.7h13.6C37.6 53 37.9 53.3 37.9 53.7zM23.6 75c-0.4 0-0.7-0.3-0.7-0.7 0-0.4 0.3-0.7 0.7-0.7h12.1c0.4 0 0.7 0.3 0.7 0.7 0 0.4-0.3 0.7-0.7 0.7H23.6zM44.9 43.3c0-0.4 0.3-0.7 0.7-0.7h4.5c6.8 0 13.2-3 17.5-8.3 0.3-0.3 0.7-0.4 1-0.1 0.3 0.3 0.4 0.7 0.1 1C64.2 40.8 57.4 44 50.2 44h-4.5C45.3 44 44.9 43.7 44.9 43.3zM78.8 24.4c0.9 2 1.8 3.9 2.7 5.8 0.4 0.8 0.3 1.6-0.2 2.5-0.2 0.3-0.4 0.4-0.7 0.5 0 0-0.1 0-0.1 0-0.2 0-0.5-0.1-0.7-0.3-0.1-0.1-0.1-0.1-0.2-0.2-0.7-0.9-1.4-1.7-2-2.6-0.6-0.8-1.2-1.5-1.8-2.3-0.2-0.3-0.2-0.8 0.1-1 0.3-0.2 0.8-0.2 1 0.1 0.6 0.8 1.2 1.6 1.8 2.3 0.5 0.7 1.1 1.4 1.7 2.2 0-0.2 0-0.4-0.1-0.5-0.9-1.9-1.8-3.8-2.7-5.8-0.2-0.4 0-0.8 0.4-1C78.2 23.9 78.7 24.1 78.8 24.4zM64.9 23.3c-0.2-0.3-0.2-0.7-0.1-1 0.1-0.5 0.6-1.2 2.2-1.2 1.7 0.1 5 0 6.6 0 0.3 0 0.5 0 0.6 0 0.5-0.7 1.9-2.5 2.3-3 0.8-1.1 2.3-2.2 3.5-1.5 1 0.6 1 1.8 0 3.6-0.5 0.9-5.8 8.4-7.1 10.2 0 0.1 0.1 0.4 0.2 0.7 0.1 0.4 0.3 1 0.3 1.2 0.1 0.4 0.3 1.3-0.3 1.9-0.2 0.2-0.5 0.4-0.9 0.4-0.2 0-0.5-0.1-0.7-0.2l-2.3-2.1c-0.3-0.3-0.3-0.7 0-1 0.3-0.3 0.7-0.3 1 0l1.9 1.7c0-0.1 0-0.1 0-0.2-0.1-0.2-0.2-0.7-0.3-1.2-0.2-0.6-0.2-0.8-0.2-0.9 0-0.2-0.1-0.6 0.2-0.9 1.7-2.3 6.7-9.4 7.1-10.2 0.7-1.2 0.6-1.6 0.5-1.7-0.2-0.1-1 0.3-1.6 1.1-0.5 0.7-2.6 3.3-2.6 3.3-0.2 0.2-0.4 0.3-0.7 0.3 0 0-0.4 0-0.9 0-1.6 0-5 0-6.6 0-0.2 0-0.4 0-0.5 0.1 1.3 0.3 4.6 1.2 6.5 1.7 0.4 0.1 0.6 0.5 0.5 0.9-0.1 0.4-0.5 0.6-0.9 0.5-2.2-0.6-6.5-1.7-6.9-1.8C65.4 23.8 65.1 23.6 64.9 23.3z" fill="#1ebbd7" data-fill-palette-color="accent"></path></svg></g></svg></g></svg></g><defs></defs></svg><rect width="395.52" height="140.83262558166427" fill="none" stroke="none" visibility="hidden"></rect></g></svg></g></svg>